<?xml version="1.0" encoding="iso-8859-1"?>
<!-- Generator: Adobe Illustrator 19.0.0, SVG Export Plug-In . SVG Version: 6.00 Build 0)  -->
<svg xmlns="http://www.w3.org/2000/svg" xmlns:xlink="http://www.w3.org/1999/xlink" version="1.1" id="Layer_1" x="0px" y="0px" viewBox="0 0 406.738 406.738" style="enable-background:new 0 0 406.738 406.738;" xml:space="preserve" width="512" height="512">
<g>
	<path style="fill:#5C6670;" d="M114.52,406.738c-1.605,0-3.238-0.26-4.844-0.807c-7.84-2.674-12.029-11.198-9.355-19.039l29-85.038   c2.676-7.841,11.197-12.027,19.039-9.355c7.842,2.674,12.029,11.198,9.355,19.039l-29,85.038   C126.588,402.813,120.76,406.738,114.52,406.738z"/>
	<path style="fill:#5C6670;" d="M308.517,406.738c-6.242,0-12.07-3.926-14.197-10.162l-29-85.038   c-2.674-7.841,1.516-16.365,9.355-19.039c7.844-2.673,16.365,1.516,19.039,9.355l29,85.038c2.674,7.841-1.514,16.365-9.355,19.039   C311.756,406.478,310.123,406.738,308.517,406.738z"/>
	<g>
		<circle style="fill:#E8E8E8;" cx="211.518" cy="180.073" r="163.776"/>
		<circle style="fill:#0071CE;" cx="211.518" cy="180.073" r="126.623"/>
		<circle style="fill:#FF6361;" cx="211.519" cy="180.073" r="84.802"/>
		<circle style="fill:#FFC843;" cx="211.519" cy="180.073" r="43.802"/>
	</g>
	<g>
		<polygon style="fill:#FFC843;" points="85.178,105.39 31.443,51.656 82.727,51.284 136.461,105.018   "/>
		<polygon style="fill:#FFC843;" points="136.834,53.733 83.1,0 82.727,51.284 136.461,105.018   "/>
		<path style="fill:#454F58;" d="M211.518,187.573c-1.919,0-3.839-0.732-5.304-2.196L77.423,56.588    c-2.929-2.93-2.929-7.678,0-10.607c2.93-2.928,7.678-2.928,10.607,0L216.821,174.77c2.929,2.93,2.929,7.678,0,10.607    C215.356,186.841,213.436,187.573,211.518,187.573z"/>
	</g>
</g>















</svg>
